<svg xmlns="http://www.w3.org/2000/svg" viewBox="0 0 1000 470" role="img" aria-label="Infinitum network logo"><path fill="#08a5db" fill-rule="evenodd" d="M178 121 L177 122 L176 122 L171 127 L171 129 L170 130 L170 134 L171 135 L171 137 L173 139 L173 140 L174 141 L175 141 L177 143 L180 143 L181 144 L182 144 L183 143 L186 143 L187 142 L188 142 L192 138 L192 136 L193 135 L193 129 L192 128 L192 127 L191 126 L191 125 L189 123 L188 123 L187 122 L186 122 L185 121 Z M995 307 L973 285 L964 202 L944 216 L892 205 L895 98 L927 158 L942 143 L923 138 L895 82 L820 102 L804 73 L815 28 L787 4 L750 16 L743 57 L767 79 L802 73 L818 123 L893 98 L882 209 L831 185 L823 156 L796 161 L750 127 L748 100 L684 39 L680 13 L668 35 L724 89 L706 100 L595 54 L597 128 L558 145 L578 177 L562 246 L528 243 L509 123 L490 110 L415 261 L376 115 L358 117 L308 77 L205 95 L295 59 L298 45 L190 59 L172 36 L231 34 L250 48 L260 35 L248 24 L165 24 L71 122 L10 142 L4 255 L22 265 L32 250 L16 236 L17 149 L68 211 L79 202 L21 142 L66 151 L112 114 L128 168 L205 96 L285 90 L358 123 L257 107 L250 117 L372 136 L411 265 L289 305 L251 292 L230 330 L174 337 L159 323 L190 272 L174 252 L157 265 L168 285 L159 320 L143 324 L116 238 L137 209 L131 193 L57 245 L67 255 L112 211 L123 217 L69 319 L40 330 L51 345 L72 336 L106 349 L69 322 L120 263 L144 364 L137 383 L104 395 L107 429 L133 438 L154 426 L158 402 L139 383 L147 362 L167 358 L228 464 L246 458 L249 437 L302 418 L288 404 L238 432 L260 353 L290 331 L289 306 L413 273 L384 352 L343 346 L316 371 L319 405 L349 425 L394 401 L385 353 L415 274 L443 306 L447 342 L482 337 L486 316 L466 297 L497 206 L476 208 L463 299 L445 306 L421 263 L482 140 L505 141 L524 255 L567 257 L521 278 L543 333 L557 331 L545 289 L591 321 L628 374 L627 396 L667 402 L703 432 L745 388 L786 465 L812 457 L809 425 L880 354 L929 406 L861 425 L865 447 L940 409 L886 353 L971 377 L965 358 L942 368 L887 344 L953 223 L971 281 L959 308 L978 321 Z M118 397 L119 397 L120 396 L121 396 L122 395 L124 395 L125 394 L134 394 L135 395 L137 395 L138 396 L139 396 L145 402 L145 403 L146 404 L146 405 L147 406 L147 414 L146 415 L146 416 L145 417 L145 418 L139 424 L138 424 L137 425 L135 425 L134 426 L124 426 L123 425 L122 425 L121 424 L120 424 L119 423 L118 423 L114 419 L114 418 L112 416 L112 413 L111 412 L111 408 L112 407 L112 405 L113 404 L113 403 L114 402 L114 401 Z M345 363 L347 363 L348 362 L352 362 L353 361 L358 361 L359 362 L363 362 L364 363 L366 363 L367 364 L368 364 L370 366 L371 366 L376 371 L376 372 L378 374 L378 375 L379 376 L379 378 L380 379 L380 391 L379 392 L379 393 L378 394 L378 395 L377 396 L377 397 L375 399 L375 400 L373 402 L372 402 L369 405 L368 405 L367 406 L366 406 L365 407 L363 407 L362 408 L349 408 L348 407 L346 407 L345 406 L344 406 L343 405 L342 405 L333 396 L333 395 L332 394 L332 392 L331 391 L331 387 L330 386 L330 384 L331 383 L331 379 L332 378 L332 376 L333 375 L333 374 L335 372 L335 371 L340 366 L341 366 L343 364 L344 364 Z M876 352 L877 353 L877 354 L808 423 L806 423 L805 422 L804 422 L803 421 L802 421 L801 420 L799 420 L798 419 L790 419 L789 418 L789 407 L790 406 L790 389 L791 388 L791 371 L792 370 L792 354 L793 353 L797 353 L798 352 L799 352 L800 351 L801 351 L804 348 L804 347 L805 346 L815 346 L816 347 L826 347 L827 348 L837 348 L838 349 L849 349 L850 350 L862 350 L863 351 L874 351 L875 352 Z M175 339 L180 339 L181 338 L187 338 L188 337 L194 337 L195 336 L201 336 L202 335 L208 335 L209 334 L216 334 L217 333 L224 333 L225 332 L231 332 L232 331 L234 333 L234 334 L235 335 L236 338 L244 346 L245 346 L246 347 L247 347 L248 348 L249 348 L252 350 L256 350 L259 352 L258 353 L258 355 L257 356 L257 359 L256 360 L256 363 L255 364 L255 366 L254 367 L254 370 L253 371 L253 373 L252 374 L252 377 L251 378 L251 380 L250 381 L250 384 L249 385 L249 388 L248 389 L248 391 L247 392 L247 394 L246 395 L246 398 L245 399 L245 401 L244 402 L244 405 L243 406 L243 409 L242 410 L242 412 L241 413 L241 416 L240 417 L240 419 L239 420 L239 423 L238 424 L238 426 L237 427 L237 430 L235 432 L234 431 L232 431 L231 432 L228 432 L227 433 L225 433 L223 435 L221 433 L221 432 L219 430 L219 429 L216 426 L216 425 L214 423 L214 422 L212 420 L212 419 L210 417 L210 416 L208 414 L208 413 L205 410 L205 409 L203 407 L203 406 L201 404 L201 403 L199 401 L199 400 L197 398 L197 397 L195 395 L195 394 L193 392 L193 391 L190 388 L190 387 L188 385 L188 384 L186 382 L186 381 L184 379 L184 378 L182 376 L182 375 L180 373 L180 372 L177 369 L177 368 L175 366 L175 365 L173 363 L173 362 L169 357 L169 356 L171 354 L171 353 L172 352 L172 351 L174 348 L174 340 Z M600 331 L601 330 L602 330 L603 331 L605 331 L606 332 L608 332 L611 334 L613 334 L614 335 L616 335 L617 336 L619 336 L620 337 L622 337 L623 338 L625 338 L626 339 L628 339 L629 340 L631 340 L632 341 L634 341 L637 343 L639 343 L640 344 L642 344 L643 345 L645 345 L646 346 L648 346 L649 347 L651 347 L652 348 L654 348 L655 349 L657 349 L658 350 L660 350 L661 351 L663 351 L666 353 L668 353 L669 354 L671 354 L672 355 L674 355 L675 356 L676 356 L677 357 L677 361 L678 362 L678 363 L679 364 L680 364 L681 365 L683 365 L684 366 L684 368 L685 369 L685 371 L687 374 L687 376 L688 377 L688 379 L690 382 L690 384 L691 385 L691 387 L693 390 L693 392 L694 393 L694 395 L696 398 L696 400 L697 401 L697 403 L699 406 L699 409 L697 411 L697 412 L695 414 L694 413 L693 413 L692 412 L691 412 L688 410 L686 410 L685 409 L684 409 L683 408 L682 408 L681 407 L680 407 L679 406 L678 406 L677 405 L676 405 L675 404 L674 404 L673 403 L672 403 L671 402 L670 402 L669 401 L668 401 L667 400 L666 400 L665 399 L664 399 L663 398 L662 398 L661 397 L660 397 L659 396 L658 396 L657 395 L656 395 L655 394 L654 394 L653 393 L652 393 L651 392 L651 391 L652 390 L652 383 L651 382 L651 380 L649 378 L649 377 L643 373 L633 373 L632 374 L630 374 L629 373 L629 372 L627 370 L627 369 L625 367 L625 366 L622 363 L622 362 L620 360 L620 359 L618 357 L618 356 L615 353 L615 352 L613 350 L613 349 L611 347 L611 346 L609 344 L609 343 L606 340 L606 339 L604 337 L604 336 L602 334 L602 333 Z M971 294 L972 294 L973 293 L981 293 L982 294 L983 294 L987 298 L987 300 L988 301 L988 305 L987 306 L987 308 L983 312 L982 312 L981 313 L973 313 L972 312 L971 312 L967 308 L967 307 L966 306 L966 300 L967 299 L967 298 Z M167 261 L168 261 L169 260 L170 260 L171 259 L176 259 L177 260 L178 260 L183 265 L183 272 L182 273 L182 274 L178 278 L176 278 L175 279 L172 279 L171 278 L169 278 L164 273 L164 265 L166 263 L166 262 Z M957 204 L958 205 L960 205 L963 208 L963 209 L964 210 L964 214 L963 215 L963 216 L960 219 L958 219 L957 220 L956 220 L955 219 L954 219 L953 218 L952 218 L950 216 L950 214 L949 213 L949 210 L950 209 L950 208 L952 206 L953 206 L954 205 L956 205 Z M828 185 L881 211 L883 216 L886 219 L891 219 L907 238 L906 240 L876 239 L873 237 L872 233 L868 230 L862 231 L859 235 L860 241 L867 246 L878 271 L873 277 L873 285 L878 291 L882 293 L887 293 L892 291 L897 284 L896 276 L889 270 L880 271 L869 247 L869 244 L872 242 L900 256 L903 261 L907 263 L911 262 L914 257 L910 251 L906 251 L902 255 L876 242 L877 241 L911 242 L913 240 L912 237 L909 237 L893 218 L897 214 L906 214 L907 215 L919 215 L946 218 L950 222 L947 230 L885 342 L880 341 L878 338 L871 315 L826 189 L826 187 Z M578 136 L582 136 L583 135 L584 135 L585 136 L588 136 L589 137 L591 137 L597 143 L597 144 L598 145 L598 146 L599 147 L599 155 L598 156 L598 158 L596 160 L596 161 L593 164 L592 164 L591 165 L590 165 L589 166 L588 166 L587 167 L580 167 L579 166 L577 166 L576 165 L575 165 L570 160 L570 159 L569 158 L569 157 L568 156 L568 147 L569 146 L569 144 L571 142 L571 141 L573 139 L574 139 L576 137 L577 137 Z M181 98 L182 99 L182 101 L186 105 L175 116 L174 116 L160 130 L159 130 L145 144 L144 144 L131 157 L127 157 L125 155 L125 152 L124 151 L124 148 L123 147 L123 144 L122 143 L122 139 L121 138 L121 135 L120 134 L120 131 L119 130 L119 126 L118 125 L118 122 L117 121 L117 118 L116 117 L116 116 L117 115 L120 115 L122 113 L122 112 L123 111 L123 110 L124 109 L126 109 L127 108 L131 108 L132 107 L136 107 L137 106 L141 106 L142 105 L146 105 L147 104 L151 104 L152 103 L156 103 L157 102 L161 102 L162 101 L166 101 L167 100 L171 100 L172 99 L176 99 L177 98 Z M301 84 L302 84 L303 83 L308 83 L310 85 L310 86 L311 87 L311 88 L310 89 L310 90 L307 93 L303 93 L302 92 L301 92 L300 91 L300 90 L299 89 L299 88 L300 87 L300 85 Z M611 69 L707 102 L707 118 L716 130 L733 134 L747 127 L795 163 L792 176 L720 169 L718 153 L710 146 L700 145 L690 151 L686 160 L688 170 L695 177 L707 179 L719 170 L792 177 L796 184 L807 192 L825 190 L878 342 L874 350 L805 343 L806 338 L837 326 L847 326 L849 317 L844 313 L835 317 L833 326 L805 337 L797 331 L788 333 L784 339 L784 345 L791 353 L787 419 L776 425 L747 387 L750 377 L746 371 L738 369 L731 374 L732 387 L713 409 L702 408 L685 365 L689 362 L686 353 L678 355 L603 329 L600 321 L591 319 L545 286 L544 276 L568 260 L579 266 L590 267 L600 263 L609 251 L609 238 L603 228 L592 222 L579 222 L581 177 L592 176 L607 165 L661 197 L667 212 L679 213 L686 205 L686 198 L681 191 L672 189 L662 196 L607 163 L608 136 L632 132 L638 138 L645 138 L651 131 L650 124 L643 119 L637 120 L631 130 L608 135 L599 130 L602 75 Z M652 93 L651 94 L650 94 L648 96 L648 101 L649 102 L649 103 L650 104 L651 104 L652 105 L655 105 L656 104 L657 104 L659 102 L659 101 L660 100 L660 98 L659 97 L659 96 L656 93 Z M121 104 L124 100 L124 99 L126 97 L127 94 L129 92 L129 91 L135 83 L136 80 L142 72 L143 69 L149 61 L150 58 L152 56 L152 55 L158 47 L159 44 L165 36 L167 36 L168 37 L169 36 L170 36 L171 37 L174 44 L176 46 L179 53 L181 55 L179 57 L178 57 L178 58 L177 59 L177 64 L180 67 L181 67 L182 68 L187 67 L189 65 L189 63 L191 61 L197 61 L198 60 L207 60 L208 59 L216 59 L217 58 L226 58 L227 57 L236 57 L237 56 L247 56 L248 55 L256 55 L257 54 L266 54 L267 53 L276 53 L277 54 L276 55 L275 55 L274 56 L272 56 L259 63 L257 63 L246 69 L244 69 L231 76 L229 76 L216 83 L214 83 L203 89 L202 89 L199 86 L198 86 L197 85 L195 85 L194 84 L190 84 L189 85 L186 86 L182 90 L182 92 L181 93 L181 95 L180 96 L177 96 L176 97 L172 97 L171 98 L167 98 L166 99 L162 99 L161 100 L157 100 L156 101 L152 101 L151 102 L147 102 L146 103 L142 103 L141 104 L137 104 L136 105 L133 105 L132 106 L128 106 L127 107 L123 107 Z M161 32 L163 35 L162 36 L162 37 L160 39 L160 40 L158 42 L158 43 L156 45 L156 46 L155 47 L155 48 L153 50 L153 51 L151 53 L151 54 L149 56 L149 57 L148 58 L148 59 L146 61 L146 62 L144 64 L144 65 L142 67 L142 68 L140 70 L140 71 L139 72 L139 73 L137 75 L137 76 L135 78 L135 79 L133 81 L133 82 L132 83 L132 84 L130 86 L130 87 L128 89 L128 90 L126 92 L126 93 L125 94 L125 95 L123 97 L123 98 L121 100 L121 101 L119 103 L118 103 L117 102 L116 102 L115 103 L113 103 L111 105 L111 106 L110 107 L110 111 L111 112 L110 113 L109 113 L107 115 L106 115 L105 116 L104 116 L102 118 L101 118 L100 119 L99 119 L98 120 L97 120 L95 122 L94 122 L93 123 L92 123 L90 125 L89 125 L88 126 L87 126 L85 128 L84 128 L83 129 L82 129 L79 131 L77 129 L77 128 L75 126 L75 125 L73 123 L87 109 L87 108 L117 78 L117 77 L148 46 L148 45 Z M239 35 L240 34 L240 33 L241 32 L242 32 L244 30 L249 30 L250 31 L251 31 L254 34 L254 38 L253 39 L253 40 L252 41 L251 41 L250 42 L248 42 L247 43 L246 43 L245 42 L243 42 L240 39 L240 38 L239 37 Z"/></svg>